<?xml version="1.0"?>
<svg xmlns="http://www.w3.org/2000/svg" height="24px" viewBox="0 0 511.99993 511" width="24px" class=""><g><path d="m148.429688 205.230469c-7.699219 28.734375-3.75 58.742187 11.125 84.507812 19.835937 34.351563 56.828124 55.691407 96.535156 55.691407 19.445312 0 38.667968-5.160157 55.59375-14.929688 53.175781-30.707031 71.464844-98.949219 40.761718-152.125-19.835937-34.359375-56.828124-55.699219-96.535156-55.699219-19.445312 0-38.667968 5.164063-55.59375 14.933594-25.761718 14.875-44.1875 38.890625-51.886718 67.621094zm96.964843 2.152343c2.789063-2.789062 6.65625-4.386718 10.605469-4.386718s7.808594 1.597656 10.597656 4.386718c2.800782 2.800782 4.398438 6.667969 4.398438 10.605469 0 3.949219-1.601563 7.820313-4.398438 10.609375-2.789062 2.789063-6.648437 4.386719-10.597656 4.386719s-7.816406-1.597656-10.605469-4.386719c-2.789062-2.789062-4.390625-6.660156-4.390625-10.609375 0-3.9375 1.601563-7.804687 4.390625-10.605469zm0 0" data-original="#000000" class="active-path" data-old_color="#000000" fill="#4949E7"/><path d="m214.644531 369.179688c-33.71875-10.375-62.996093-33.15625-81.0625-64.449219-2-3.460938-3.832031-6.988281-5.519531-10.5625-46.082031 13.640625-79.800781 56.351562-79.800781 106.796875 0 61.40625 49.960937 111.359375 111.367187 111.359375 29.695313 0 56.710938-11.679688 76.695313-30.6875-2.246094-3.230469-4.382813-6.554688-6.371094-9.996094-18.054687-31.265625-23.421875-67.464844-15.308594-102.460937zm-60.472656 58.445312c-2.789063 2.800781-6.660156 4.398438-10.605469 4.398438-3.949218 0-7.808594-1.597657-10.597656-4.398438-2.789062-2.777344-4.390625-6.644531-4.390625-10.59375s1.601563-7.820312 4.390625-10.609375 6.644531-4.386719 10.597656-4.386719c3.957032 0 7.816406 1.597656 10.605469 4.386719s4.386719 6.660156 4.386719 10.609375-1.597656 7.804688-4.386719 10.59375zm0 0" data-original="#000000" class="active-path" data-old_color="#000000" fill="#4949E7"/><path d="m383.863281 294.191406c-11.84375 25.269532-31.238281 47.296875-57.183593 62.28125-21.476563 12.398438-45.886719 18.949219-70.585938 18.949219-4.023438 0-8.023438-.191406-11.992188-.53125-6.738281 27.890625-2.574218 56.816406 11.824219 81.757813 19.835938 34.355468 56.824219 55.699218 96.535157 55.699218 19.445312 0 38.667968-5.167968 55.59375-14.9375 53.179687-30.699218 71.464843-98.945312 40.761718-152.128906-14.425781-24.984375-37.933594-43.078125-64.953125-51.089844zm-4.828125 133.433594c-2.789062 2.800781-6.648437 4.398438-10.597656 4.398438s-7.820312-1.597657-10.609375-4.398438c-2.789063-2.789062-4.394531-6.644531-4.394531-10.59375s1.605468-7.820312 4.394531-10.609375 6.660156-4.386719 10.609375-4.386719c3.945312 0 7.808594 1.597656 10.597656 4.386719 2.789063 2.789063 4.398438 6.660156 4.398438 10.609375s-1.609375 7.804688-4.398438 10.59375zm0 0" data-original="#000000" class="active-path" data-old_color="#000000" fill="#4949E7"/><path d="m506.6875 17.550781c-1.175781-5.976562-5.847656-10.648437-11.824219-11.820312-1.085937-.214844-27.007812-5.226563-61.667969-5.226563-44.019531 0-104.800781 8.300782-144.339843 47.84375-12.164063 12.164063-22.058594 27.019532-29.648438 44.390625 49.132813 1.15625 94.585938 27.988281 119.210938 70.636719 17.925781 31.050781 22.6875 66.140625 16.039062 98.78125 28.527344-7.910156 51.847657-20.816406 69.621094-38.59375 68.671875-68.648438 43.707031-200.433594 42.609375-206.011719zm0 0" data-original="#000000" class="active-path" data-old_color="#000000" fill="#4949E7"/><path d="m119.460938 197.46875c9.773437-36.46875 33.164062-66.949219 65.863281-85.828125 20.574219-11.878906 43.839843-18.375 67.476562-18.902344-7.589843-17.375-17.492187-32.234375-29.652343-44.390625-39.535157-39.546875-100.308594-47.847656-144.324219-47.847656-34.679688 0-60.609375 5.019531-61.695313 5.234375-5.972656 1.175781-10.644531 5.84375-11.820312 11.820313-1.097656 5.578124-26.050782 137.355468 42.613281 206.007812 17.742187 17.742188 41.011719 30.632812 69.464844 38.546875-4.300781-21.15625-3.675781-43.179687 2.074219-64.640625zm0 0" data-original="#000000" class="active-path" data-old_color="#000000" fill="#4949E7"/></g> </svg>
