<?xml version="1.0" encoding="utf-8"?>
<!-- Generator: Adobe Illustrator 24.0.3, SVG Export Plug-In . SVG Version: 6.00 Build 0)  -->
<svg version="1.1" id="Capa_1" xmlns="http://www.w3.org/2000/svg" xmlns:xlink="http://www.w3.org/1999/xlink" x="0px" y="0px"
	 viewBox="0 0 3072.2 940.6" style="enable-background:new 0 0 3072.2 940.6;" xml:space="preserve">
<style type="text/css">
	.st0{fill:#FFFFFF;}
	.st1{fill:#FFFFFF;}
	.st2{fill:#92BC37;}
	.st3{display:none;}
	.st4{display:inline;fill:#FFFFFF;}
</style>
<g id="Vertical">
	<rect x="-660" y="-3577.7" class="st0" width="575" height="1080"/>
</g>
<path class="st1" d="M926.8-2891.6h-1.6v0C925.7-2891.6,926.2-2891.6,926.8-2891.6z"/>
<g>
	<rect x="878" y="-2851.7" class="st0" width="26" height="22"/>
</g>
<rect x="-1294" y="-3577.7" class="st1" width="563" height="1079"/>
<rect y="-1222.7" class="st1" width="3072.2" height="1094"/>
<g id="Horizontal_Azul">
	<g id="fondo">
		<rect y="-3578.7" class="st0" width="1920" height="1080"/>
	</g>
	<path id="a" class="st1" d="M1181.7-3103.2C1181.7-3103.2,1181.7-3103.2,1181.7-3103.2v185c0,16.8-13.6,30.3-30.3,30.3h-185
		c-0.5,0-1.1,0-1.6,0c-118.2-0.8-213.8-96.9-213.8-215.4c0-118.9,96.4-215.4,215.4-215.4S1181.7-3222.1,1181.7-3103.2z
		 M966.3-3157.6c-30.1,0-54.4,24.4-54.4,54.4s24.4,54.4,54.4,54.4s54.4-24.4,54.4-54.4C1020.7-3133.3,996.3-3157.6,966.3-3157.6z"/>
	<text transform="matrix(1 0 0 1 1192.1387 -2776.7815)" class="st2" style="font-family:'MyriadPro-Semibold'; font-size:70px;">®</text>
	<g id="texto_2_">
		<path class="st2" d="M776.6-2847.5h12.7l30.3,70.8h-17.3l-6-15h-27l-5.8,15h-16.9L776.6-2847.5z M782.5-2826.9l-8.5,22h17
			L782.5-2826.9z"/>
		<path class="st2" d="M873.5-2780.8c0,9.2-2.3,16.2-6.8,20.9c-4.6,4.8-11.5,7.2-20.8,7.2c-4.3,0-8.5-0.5-12.6-1.5
			s-7.9-2.8-11.4-5.6l8.2-12.4c2.3,1.9,4.7,3.5,7.2,4.6c2.5,1.1,5.3,1.7,8.3,1.7c4.5,0,7.8-1.1,10-3.3s3.2-5.1,3.2-8.6v-4.7h-0.2
			c-1.7,2.3-3.8,4-6.3,4.9c-2.5,1-4.9,1.4-7.1,1.4c-3.5,0-6.8-0.6-9.6-1.8s-5.4-3-7.4-5.2c-2.1-2.2-3.7-4.9-4.8-7.9
			c-1.1-3.1-1.7-6.4-1.7-10.1c0-3.2,0.5-6.3,1.5-9.4c1-3.1,2.5-5.8,4.3-8.1c1.9-2.3,4.2-4.2,6.8-5.7c2.7-1.4,5.7-2.1,9.2-2.1
			c2.1,0,4,0.2,5.8,0.7s3.3,1.1,4.7,1.8s2.6,1.6,3.5,2.4s1.8,1.8,2.4,2.6h0.2v-6.4h13.6L873.5-2780.8L873.5-2780.8z M836.3-2801.3
			c0,1.6,0.3,3.1,0.9,4.6c0.6,1.4,1.4,2.7,2.5,3.8c1.1,1.1,2.3,2,3.7,2.7s3,1,4.7,1c1.6,0,3.2-0.3,4.6-1c1.4-0.7,2.7-1.6,3.8-2.7
			c1.1-1.1,1.9-2.4,2.5-3.8c0.6-1.4,0.9-3,0.9-4.6c0-1.6-0.3-3.1-0.9-4.6s-1.4-2.7-2.5-3.8c-1.1-1.1-2.3-2-3.8-2.6
			c-1.4-0.7-3-1-4.6-1c-1.7,0-3.3,0.3-4.7,1s-2.7,1.6-3.7,2.6c-1.1,1.1-1.9,2.4-2.5,3.8S836.3-2802.9,836.3-2801.3z"/>
		<path class="st2" d="M883.9-2825.3h14.8v7.8h0.2c1.6-3,3.4-5.2,5.6-6.8s4.9-2.2,8.2-2.2c0.8,0,1.7,0,2.6,0.1
			c0.8,0.1,1.6,0.2,2.4,0.4v13.7c-1.1-0.3-2.1-0.6-3.1-0.8s-2.1-0.2-3.2-0.2c-2.8,0-5.1,0.4-6.7,1.2c-1.6,0.8-2.9,1.9-3.8,3.4
			s-1.5,3.1-1.7,5.1s-0.4,4.2-0.4,6.6v20.3h-14.8L883.9-2825.3L883.9-2825.3z"/>
		<rect x="922.8" y="-2825.3" class="st2" width="14.8" height="48.6"/>
		<path class="st2" d="M974-2816.9h-13.6v23.4c0,1.5,0,2.9,0.1,4.2c0.1,1.3,0.3,2.4,0.8,3.4c0.5,1,1.2,1.7,2.1,2.3
			c0.9,0.6,2.2,0.8,3.9,0.8c1.1,0,2.3-0.1,3.4-0.4c1.2-0.3,2.3-0.7,3.3-1.2l0.3,7.1c-1.3,0.6-2.8,1-4.4,1.3s-3.1,0.4-4.6,0.4
			c-2.8,0-4.9-0.4-6.6-1.1s-2.9-1.8-3.8-3.1c-0.9-1.3-1.5-3-1.8-4.9c-0.3-2-0.4-4.1-0.4-6.6v-25.7h-10v-6.6h10v-13.3h7.7v13.3H974
			L974-2816.9L974-2816.9z"/>
		<path class="st2" d="M982-2812.4c0-2.1-0.1-4.1-0.2-6c-0.1-1.9-0.2-3.6-0.2-5.1h7.3c0,1.3,0,2.5,0.1,3.8c0.1,1.3,0.1,2.6,0.1,3.9
			h0.2c0.5-1.1,1.3-2.2,2.2-3.3s2.1-2,3.4-2.9c1.3-0.8,2.8-1.5,4.4-2c1.6-0.5,3.4-0.8,5.3-0.8c0.5,0,1.1,0,1.6,0.1
			c0.5,0.1,1.1,0.2,1.6,0.4l-0.5,7.9c-1.3-0.4-2.7-0.6-4.1-0.6c-4.7,0-8.2,1.6-10.3,4.7c-2.1,3.1-3.2,7.3-3.2,12.8v22.8H982
			L982-2812.4L982-2812.4z"/>
		<path class="st2" d="M1014.7-2817.5c2.4-2.5,5.2-4.3,8.4-5.4c3.2-1.2,6.5-1.8,9.9-1.8c6.8,0,11.7,1.6,14.8,4.9
			c3,3.3,4.5,8.2,4.5,14.9v20.1c0,1.3,0.1,2.7,0.2,4.1c0.1,1.4,0.3,2.8,0.5,4h-7.4c-0.3-1.1-0.4-2.2-0.4-3.6c0-1.3-0.1-2.4-0.1-3.4
			h-0.2c-1.5,2.4-3.5,4.4-6.1,5.9c-2.5,1.5-5.6,2.3-9.1,2.3c-2.4,0-4.6-0.3-6.6-0.9c-2.1-0.6-3.9-1.5-5.4-2.6s-2.8-2.6-3.7-4.4
			c-0.9-1.7-1.4-3.7-1.4-6c0-3.9,1-6.9,2.9-9.1c2-2.2,4.4-3.8,7.3-4.9c2.9-1.1,6.1-1.7,9.4-2c3.4-0.3,6.5-0.4,9.3-0.4h2.9v-1.4
			c0-3.4-1-6-3-7.7s-4.8-2.6-8.4-2.6c-2.5,0-4.9,0.4-7.3,1.2c-2.4,0.8-4.5,2.1-6.3,3.8L1014.7-2817.5z M1036.9-2799.2
			c-4.9,0-8.8,0.7-11.7,2.1c-2.9,1.4-4.3,3.7-4.3,6.9c0,2.9,1,5,2.9,6.2c1.9,1.2,4.3,1.8,7.2,1.8c2.2,0,4.2-0.4,5.8-1.1
			c1.7-0.8,3.1-1.8,4.2-3.1c1.1-1.3,2-2.8,2.6-4.4s0.9-3.5,1-5.4v-3H1036.9z"/>
		<path class="st2" d="M1097.7-2811.8c-1.6-2-3.4-3.4-5.3-4.4c-1.9-0.9-4-1.3-6.3-1.3c-2.6,0-4.8,0.4-6.8,1.3
			c-2,0.9-3.6,2.2-4.9,3.8c-1.3,1.6-2.2,3.5-2.9,5.6c-0.7,2.1-1,4.4-1,6.8s0.4,4.6,1.1,6.8s1.8,3.9,3.2,5.6c1.3,1.6,3,2.8,4.9,3.8
			c1.9,0.9,4,1.3,6.4,1.3c5.1,0,8.9-1.9,11.7-5.8l5.7,5.5c-2.2,2.6-4.8,4.5-7.9,5.7s-6.2,1.8-9.5,1.8c-3.5,0-6.8-0.6-9.7-1.8
			s-5.5-2.9-7.5-5.1c-2.1-2.2-3.7-4.8-4.8-7.8c-1.2-3-1.7-6.3-1.7-9.9c0-3.5,0.6-6.8,1.7-9.8s2.8-5.6,4.9-7.8
			c2.1-2.2,4.6-3.9,7.5-5.2s6.2-1.8,9.7-1.8c3.4,0,6.6,0.6,9.7,1.8c3.1,1.2,5.7,3.1,8,5.6L1097.7-2811.8z"/>
		<path class="st2" d="M1152.1-2785.2c-2.8,3.6-5.8,6.1-9.1,7.5c-3.3,1.4-7.1,2.2-11.4,2.2c-3.6,0-6.8-0.7-9.7-2
			c-2.9-1.3-5.3-3-7.3-5.2c-2-2.2-3.5-4.8-4.6-7.8s-1.6-6.2-1.6-9.6c0-3.6,0.6-6.9,1.8-9.9s2.8-5.6,4.9-7.8c2.1-2.2,4.6-3.9,7.5-5.1
			s6-1.8,9.4-1.8c3.2,0,6.2,0.5,8.8,1.6s5,2.7,6.9,4.8c1.9,2.1,3.4,4.7,4.5,7.7c1.1,3,1.6,6.5,1.6,10.4v2.5h-37.2
			c0.1,2,0.6,3.9,1.4,5.8c0.8,1.8,1.9,3.4,3.2,4.8c1.3,1.4,2.8,2.5,4.6,3.2c1.8,0.8,3.7,1.2,5.8,1.2c3.3,0,6.2-0.6,8.5-1.8
			c2.3-1.2,4.4-3,6.2-5.3L1152.1-2785.2z M1145.5-2804.3c-0.1-4-1.4-7.2-3.8-9.6c-2.4-2.4-5.8-3.6-10-3.6s-7.7,1.2-10.3,3.6
			c-2.6,2.4-4.2,5.6-4.7,9.6H1145.5z"/>
		<path class="st2" d="M1164.2-2812.4c0-2.1-0.1-4.1-0.2-6c-0.1-1.9-0.2-3.6-0.2-5.1h7.3c0,1.3,0,2.5,0.1,3.8
			c0.1,1.3,0.1,2.6,0.1,3.9h0.2c0.5-1.1,1.3-2.2,2.2-3.3s2.1-2,3.4-2.9c1.3-0.8,2.8-1.5,4.4-2s3.4-0.8,5.3-0.8c0.5,0,1.1,0,1.6,0.1
			c0.5,0.1,1.1,0.2,1.6,0.4l-0.5,7.9c-1.3-0.4-2.7-0.6-4.1-0.6c-4.7,0-8.2,1.6-10.3,4.7c-2.1,3.1-3.2,7.3-3.2,12.8v22.8h-7.7
			L1164.2-2812.4L1164.2-2812.4z"/>
	</g>
	<path id="texto" class="st2" d="M922.7-2829.7c0,0-1.2-11.4,12-11h5.4c0,0,0.3,11-11.8,11H922.7z"/>
	<path id="grande" class="st2" d="M960.2-3358.4c0,0-11.3-104,109.1-100.3h48.9c0,0,2.5,100.3-107.8,100.3H960.2z"/>
</g>
<path class="st1" d="M933.2-1635h-1.6v0C932.2-1635,932.7-1635,933.2-1635z"/>
<g id="Logo_Azul">
	<path class="st0" d="M-177.4-1990.2C-177.4-1990.2-177.4-1990.2-177.4-1990.2v185c0,16.8-13.6,30.3-30.3,30.3h-185
		c-0.5,0-1.1,0-1.6,0c-118.2-0.9-213.8-96.9-213.8-215.4c0-118.9,96.4-215.4,215.4-215.4S-177.4-2109.1-177.4-1990.2z
		 M-392.7-2044.6c-30.1,0-54.4,24.4-54.4,54.4c0,30.1,24.4,54.5,54.4,54.5s54.5-24.4,54.5-54.5
		C-338.3-2020.3-362.6-2044.6-392.7-2044.6z"/>
	<path id="grande_1_" class="st2" d="M-398.8-2245.4c0,0-11.3-104,109.1-100.3h48.9c0,0,2.5,100.3-107.8,100.3H-398.8z"/>
</g>
<g id="Logo_Azul_1_">
	<path class="st0" d="M649.9,529.2C649.9,529.2,649.9,529.2,649.9,529.2v223.2c0,20.2-16.4,36.6-36.6,36.6H390.1c-0.6,0-1.3,0-1.9,0
		c-142.6-1-257.8-116.9-257.8-259.7c0-143.5,116.3-259.8,259.8-259.8S649.9,385.7,649.9,529.2z M390.1,463.5
		c-36.3,0-65.7,29.4-65.7,65.7s29.4,65.7,65.7,65.7s65.7-29.4,65.7-65.7S426.4,463.5,390.1,463.5z"/>
	<path id="grande_2_" class="st2" d="M382.8,221.4c0,0-13.6-125.5,131.5-120.9h59c0,0,3,120.9-130,120.9H382.8z"/>
</g>
<g id="Horizontal_Verde">
	<rect y="-2416.7" class="st2" width="1920" height="1094"/>
	<g>
		<g>
			<g>
				<path class="st1" d="M783.1-1590.9h12.7l30.3,70.8h-17.3l-6-15h-27l-5.8,15H753L783.1-1590.9z M789-1570.3l-8.5,22h17
					L789-1570.3z"/>
			</g>
			<g>
				<path class="st1" d="M879.9-1524.2c0,9.2-2.3,16.2-6.8,21c-4.6,4.8-11.5,7.2-20.8,7.2c-4.3,0-8.5-0.5-12.6-1.5
					c-4.1-1-7.9-2.8-11.4-5.7l8.2-12.4c2.3,1.9,4.7,3.5,7.2,4.6c2.5,1.1,5.3,1.7,8.3,1.7c4.5,0,7.8-1.1,10-3.3s3.2-5.1,3.2-8.6v-4.7
					H865c-1.7,2.3-3.8,4-6.3,4.9c-2.5,1-4.9,1.5-7.1,1.5c-3.5,0-6.8-0.6-9.6-1.8s-5.4-3-7.4-5.2c-2.1-2.2-3.7-4.9-4.8-7.9
					c-1.1-3.1-1.7-6.4-1.7-10.1c0-3.2,0.5-6.3,1.5-9.4c1-3.1,2.5-5.8,4.3-8.1c1.9-2.3,4.2-4.2,6.8-5.7c2.7-1.4,5.7-2.2,9.2-2.2
					c2.1,0,4,0.2,5.8,0.7s3.3,1.1,4.7,1.8s2.6,1.5,3.5,2.4s1.8,1.8,2.4,2.7h0.2v-6.4h13.6L879.9-1524.2L879.9-1524.2z M842.8-1544.7
					c0,1.6,0.3,3.1,0.9,4.6c0.6,1.4,1.4,2.7,2.5,3.8s2.3,2,3.7,2.7s3,1,4.7,1c1.6,0,3.2-0.3,4.6-1c1.4-0.7,2.7-1.5,3.8-2.7
					c1.1-1.1,1.9-2.4,2.5-3.8c0.6-1.4,0.9-3,0.9-4.6s-0.3-3.1-0.9-4.5c-0.6-1.4-1.4-2.7-2.5-3.8s-2.3-2-3.8-2.7c-1.4-0.7-3-1-4.6-1
					c-1.7,0-3.3,0.3-4.7,1c-1.4,0.7-2.7,1.6-3.7,2.7c-1.1,1.1-1.9,2.4-2.5,3.8C843.1-1547.8,842.8-1546.3,842.8-1544.7z"/>
			</g>
			<g>
				<path class="st1" d="M890.3-1568.7h14.8v7.8h0.2c1.6-3,3.4-5.2,5.6-6.8s4.9-2.2,8.2-2.2c0.8,0,1.7,0,2.6,0.1
					c0.8,0.1,1.6,0.2,2.4,0.4v13.7c-1.1-0.3-2.1-0.6-3.1-0.8c-1-0.2-2.1-0.2-3.2-0.2c-2.8,0-5.1,0.4-6.7,1.2
					c-1.6,0.8-2.9,1.9-3.8,3.3c-0.9,1.4-1.5,3.2-1.7,5.2s-0.4,4.2-0.4,6.6v20.3h-14.8L890.3-1568.7L890.3-1568.7z"/>
			</g>
			<g>
				<rect x="929.2" y="-1568.7" class="st1" width="14.8" height="48.6"/>
			</g>
			<g>
				<path class="st1" d="M980.4-1560.3h-13.6v23.4c0,1.5,0,3,0.1,4.2c0.1,1.3,0.3,2.4,0.8,3.4c0.5,1,1.2,1.7,2.1,2.3
					c0.9,0.6,2.2,0.8,3.9,0.8c1.1,0,2.3-0.1,3.4-0.4c1.2-0.3,2.3-0.7,3.3-1.2l0.3,7.1c-1.3,0.6-2.8,1-4.4,1.3s-3.1,0.4-4.6,0.4
					c-2.8,0-4.9-0.4-6.6-1.1s-2.9-1.8-3.8-3.1c-0.9-1.3-1.5-3-1.8-5c-0.3-2-0.4-4.2-0.4-6.5v-25.7h-10v-6.6h10v-13.3h7.7v13.3h13.6
					L980.4-1560.3L980.4-1560.3z"/>
			</g>
			<g>
				<path class="st1" d="M988.5-1555.8c0-2.1-0.1-4.1-0.2-6s-0.2-3.6-0.2-5.1h7.3c0,1.3,0,2.5,0.1,3.8c0.1,1.3,0.1,2.6,0.1,3.9h0.2
					c0.5-1.1,1.3-2.2,2.2-3.3c0.9-1.1,2.1-2,3.4-2.8s2.8-1.5,4.4-2c1.6-0.5,3.4-0.8,5.3-0.8c0.5,0,1.1,0,1.6,0.1
					c0.5,0.1,1.1,0.2,1.6,0.4l-0.5,7.9c-1.3-0.4-2.7-0.6-4.1-0.6c-4.7,0-8.2,1.6-10.3,4.7s-3.2,7.3-3.2,12.8v22.8h-7.7L988.5-1555.8
					L988.5-1555.8z"/>
			</g>
			<g>
				<path class="st1" d="M1021.1-1560.9c2.4-2.5,5.2-4.3,8.4-5.5c3.2-1.2,6.5-1.8,9.9-1.8c6.8,0,11.7,1.6,14.8,4.9
					c3,3.3,4.5,8.2,4.5,14.9v20.1c0,1.3,0.1,2.7,0.2,4.2s0.3,2.8,0.5,4h-7.4c-0.3-1.1-0.4-2.2-0.4-3.6c0-1.3-0.1-2.4-0.1-3.4h-0.2
					c-1.5,2.4-3.5,4.4-6.1,5.9c-2.5,1.5-5.6,2.3-9.1,2.3c-2.4,0-4.6-0.3-6.6-0.9c-2.1-0.6-3.9-1.5-5.4-2.7c-1.5-1.2-2.8-2.6-3.7-4.3
					c-0.9-1.7-1.4-3.7-1.4-6c0-3.9,1-6.9,2.9-9.1s4.4-3.8,7.3-4.9c2.9-1.1,6.1-1.7,9.4-2c3.4-0.3,6.5-0.4,9.3-0.4h2.9v-1.4
					c0-3.4-1-6-3-7.7s-4.8-2.6-8.4-2.6c-2.5,0-4.9,0.4-7.3,1.2c-2.4,0.8-4.5,2.1-6.3,3.8L1021.1-1560.9z M1043.3-1542.6
					c-4.9,0-8.8,0.7-11.7,2.1c-2.9,1.4-4.3,3.7-4.3,6.9c0,2.9,1,5,2.9,6.2s4.3,1.8,7.2,1.8c2.2,0,4.2-0.4,5.8-1.2
					c1.7-0.8,3.1-1.8,4.2-3c1.1-1.3,2-2.8,2.6-4.5c0.6-1.7,0.9-3.5,1-5.4v-3H1043.3L1043.3-1542.6z"/>
			</g>
			<g>
				<path class="st1" d="M1104.1-1555.2c-1.6-2-3.4-3.4-5.3-4.3s-4-1.3-6.3-1.3c-2.6,0-4.8,0.5-6.8,1.3c-2,0.9-3.6,2.2-4.9,3.8
					s-2.2,3.5-2.9,5.6c-0.7,2.1-1,4.3-1,6.8s0.4,4.7,1.1,6.8s1.8,3.9,3.2,5.5c1.3,1.6,3,2.8,4.9,3.8s4,1.3,6.4,1.3
					c5.1,0,8.9-1.9,11.7-5.8l5.7,5.5c-2.2,2.6-4.8,4.5-7.9,5.7c-3,1.2-6.2,1.8-9.5,1.8c-3.5,0-6.8-0.6-9.7-1.8
					c-2.9-1.2-5.5-2.9-7.5-5.1s-3.7-4.8-4.8-7.8c-1.2-3-1.7-6.3-1.7-9.9c0-3.5,0.6-6.8,1.7-9.8s2.8-5.6,4.9-7.8
					c2.1-2.2,4.6-3.9,7.5-5.2s6.2-1.8,9.7-1.8c3.4,0,6.6,0.6,9.7,1.8c3.1,1.2,5.7,3.1,8,5.6L1104.1-1555.2z"/>
			</g>
			<g>
				<path class="st1" d="M1158.5-1528.6c-2.8,3.6-5.8,6.1-9.1,7.6c-3.3,1.4-7.1,2.2-11.4,2.2c-3.6,0-6.8-0.7-9.7-2
					c-2.9-1.3-5.3-3-7.3-5.2c-2-2.2-3.5-4.8-4.6-7.8s-1.6-6.2-1.6-9.6c0-3.6,0.6-6.9,1.8-10s2.8-5.6,4.9-7.8
					c2.1-2.2,4.6-3.8,7.5-5.1c2.9-1.2,6-1.8,9.4-1.8c3.2,0,6.2,0.5,8.8,1.7c2.7,1.1,5,2.7,6.9,4.8s3.4,4.7,4.5,7.7
					c1.1,3,1.6,6.5,1.6,10.3v2.5H1123c0.1,2,0.6,3.9,1.4,5.8c0.8,1.8,1.9,3.4,3.2,4.8c1.3,1.4,2.8,2.5,4.6,3.2
					c1.8,0.8,3.7,1.2,5.8,1.2c3.3,0,6.2-0.6,8.5-1.8c2.3-1.2,4.4-3,6.2-5.3L1158.5-1528.6z M1151.9-1547.7c-0.1-4-1.4-7.2-3.8-9.6
					c-2.4-2.4-5.8-3.6-10-3.6s-7.7,1.2-10.3,3.6c-2.6,2.4-4.2,5.6-4.7,9.6H1151.9z"/>
			</g>
			<g>
				<path class="st1" d="M1170.7-1555.8c0-2.1-0.1-4.1-0.2-6s-0.2-3.6-0.2-5.1h7.3c0,1.3,0,2.5,0.1,3.8c0.1,1.3,0.1,2.6,0.1,3.9h0.2
					c0.5-1.1,1.3-2.2,2.2-3.3c0.9-1.1,2.1-2,3.4-2.8s2.8-1.5,4.4-2s3.4-0.8,5.3-0.8c0.5,0,1.1,0,1.6,0.1c0.5,0.1,1.1,0.2,1.6,0.4
					l-0.5,7.9c-1.3-0.4-2.7-0.6-4.1-0.6c-4.7,0-8.2,1.6-10.3,4.7s-3.2,7.3-3.2,12.8v22.8h-7.7L1170.7-1555.8L1170.7-1555.8z"/>
			</g>
		</g>
	</g>
	<g>
		<path class="st1" d="M966.6-2101.8c0,0-11.3-104,109.1-100.3h48.9c0,0,2.5,100.3-107.8,100.3H966.6z"/>
	</g>
	<text transform="matrix(1 0 0 1 1198.5752 -1520.1808)" class="st2" style="font-family:'MyriadPro-Semibold'; font-size:70px;">®</text>
	<path id="Circulo_1_" class="st1" d="M1188.1-1846.6C1188.1-1846.6,1188.1-1846.6,1188.1-1846.6v185c0,16.8-13.6,30.3-30.3,30.3
		h-185c-0.5,0-1.1,0-1.6,0c-118.2-0.8-213.8-96.9-213.8-215.4c0-118.9,96.4-215.4,215.4-215.4S1188.1-1965.5,1188.1-1846.6z
		 M972.7-1901c-30.1,0-54.4,24.4-54.4,54.5c0,30.1,24.4,54.4,54.4,54.4s54.4-24.4,54.4-54.4C1027.2-1876.7,1002.8-1901,972.7-1901z"
		/>
	<g>
		<path class="st1" d="M929.1-1573.1c0,0-1.2-11.4,12-11h5.4c0,0,0.3,11-11.8,11H929.1z"/>
	</g>
</g>
<text transform="matrix(0.9833 0 0 1 722.1553 -3721.6838)" class="st2" style="font-family:'Avenir-Black'; font-size:100px;">Agri</text>
<text transform="matrix(0.9833 0 0 1 917.0449 -3721.6838)" class="st2" style="font-family:'Avenir-Roman'; font-size:100px;">tracer</text>
<g id="Texto_Horizontal">
	<g class="st3">
		<rect x="621.8" y="295.6" class="st4" width="2487" height="645"/>
	</g>
	<g>
		<path class="st2" d="M887.4,383.4h63.4l151.4,354h-86.5l-30-75H850.5l-29,75h-84.6L887.4,383.4z M916.9,486.4l-42.3,110h85.1
			L916.9,486.4z"/>
		<path class="st2" d="M1371.6,716.9c0,46-11.4,80.9-34.2,104.8c-22.8,23.8-57.4,35.8-104,35.8c-21.3,0-42.3-2.4-62.9-7.2
			c-20.6-4.8-39.7-14.2-57-28.2l40.8-62c11.5,9.7,23.5,17.3,36.1,23c12.6,5.7,26.5,8.5,41.5,8.5c22.6,0,39.2-5.6,49.9-16.8
			c10.6-11.2,16-25.4,16-42.8v-23.5h-1c-8.5,11.7-19.1,19.9-31.7,24.8c-12.6,4.8-24.5,7.2-35.6,7.2c-17.7,0-33.8-3.1-48.2-9.2
			c-14.4-6.2-26.8-14.8-37.1-26c-10.3-11.2-18.3-24.4-23.9-39.8c-5.6-15.3-8.4-32.2-8.4-50.5c0-16,2.5-31.7,7.6-47
			c5.1-15.3,12.3-28.8,21.6-40.5c9.3-11.7,20.7-21.1,34.2-28.2c13.4-7.2,28.7-10.8,45.7-10.8c10.5,0,20.1,1.2,28.8,3.5
			c8.7,2.3,16.5,5.3,23.4,9c6.9,3.7,12.8,7.8,17.7,12.2s8.9,8.9,11.8,13.2h1v-32h67.9V716.9z M1185.8,614.4c0,8,1.5,15.6,4.4,22.8
			c2.9,7.2,7.1,13.5,12.5,19s11.6,9.9,18.7,13.2c7,3.3,14.8,5,23.4,5c8.2,0,15.9-1.7,23.1-5c7.2-3.3,13.5-7.8,18.9-13.2
			s9.6-11.8,12.5-19c2.9-7.2,4.4-14.8,4.4-22.8s-1.5-15.6-4.4-22.8c-2.9-7.2-7.1-13.5-12.5-19s-11.7-9.9-18.9-13.2
			c-7.2-3.3-14.9-5-23.1-5c-8.5,0-16.3,1.7-23.4,5c-7.1,3.3-13.3,7.8-18.7,13.2s-9.6,11.8-12.5,19
			C1187.3,598.8,1185.8,606.4,1185.8,614.4z"/>
		<path class="st2" d="M1423.7,494.4h73.8v39h1c7.9-15,17.2-26.2,28-33.8s24.4-11.2,40.8-11.2c4.3,0,8.5,0.2,12.8,0.5
			c4.3,0.3,8.2,1,11.8,2v68.5c-5.2-1.7-10.4-2.9-15.5-3.8c-5.1-0.8-10.4-1.2-16-1.2c-14.1,0-25.2,2-33.4,6
			c-8.2,4-14.5,9.6-18.9,16.8c-4.4,7.2-7.3,15.8-8.6,25.8c-1.3,10-2,21-2,33v101.5h-73.8L1423.7,494.4L1423.7,494.4z"/>
		<rect x="1617.9" y="494.4" class="st2" width="73.8" height="243"/>
		<path class="st2" d="M1874.1,536.4h-67.9v117c0,7.7,0.2,14.8,0.5,21.2c0.3,6.5,1.6,12.2,3.9,17c2.3,4.8,5.7,8.7,10.3,11.5
			c4.6,2.8,11.1,4.2,19.7,4.2c5.6,0,11.3-0.7,17.2-2c5.9-1.3,11.5-3.3,16.7-6l1.5,35.5c-6.6,3-13.9,5.2-21.9,6.5
			c-8,1.3-15.7,2-22.9,2c-13.8,0-24.8-1.8-32.9-5.5c-8.2-3.7-14.6-8.8-19.2-15.5c-4.6-6.7-7.6-14.9-9.1-24.8
			c-1.5-9.8-2.2-20.8-2.2-32.8V536.4h-50.1v-33h50.1v-66.5h38.4v66.5h67.9L1874.1,536.4L1874.1,536.4z"/>
		<path class="st2" d="M1914.4,558.9c0-10.7-0.3-20.7-1-30c-0.7-9.3-1-17.8-1-25.5h36.4c0,6.3,0.2,12.7,0.5,19
			c0.3,6.3,0.5,12.8,0.5,19.5h1c2.6-5.7,6.3-11.2,11.1-16.5c4.8-5.3,10.4-10.1,17-14.2c6.6-4.2,13.9-7.5,22.1-10
			c8.2-2.5,17-3.8,26.6-3.8c2.6,0,5.2,0.2,7.9,0.5c2.6,0.3,5.2,1,7.9,2l-2.5,39.5c-6.6-2-13.4-3-20.6-3c-23.6,0-40.7,7.8-51.4,23.2
			s-16,36.8-16,63.8v114h-38.4L1914.4,558.9L1914.4,558.9z"/>
		<path class="st2" d="M2077.6,533.4c11.8-12.3,25.8-21.4,42-27.2c16.2-5.8,32.7-8.8,49.4-8.8c34.1,0,58.7,8.2,73.8,24.5
			c15.1,16.3,22.6,41.2,22.6,74.5v100.5c0,6.7,0.3,13.6,1,20.8c0.6,7.2,1.5,13.8,2.5,19.8H2232c-1.3-5.3-2-11.2-2.2-17.8
			c-0.2-6.5-0.2-12.2-0.2-17.2h-1c-7.5,12-17.6,21.8-30.2,29.5s-27.8,11.5-45.5,11.5c-11.8,0-22.9-1.5-33.2-4.5s-19.3-7.4-27-13.2
			c-7.7-5.8-13.9-13.1-18.4-21.8c-4.6-8.7-6.9-18.7-6.9-30c0-19.3,4.9-34.5,14.8-45.5s22-19.2,36.6-24.5c14.6-5.3,30.3-8.7,47.2-10
			c16.9-1.3,32.4-2,46.5-2h14.8v-7c0-17-5-29.8-15-38.5c-10-8.7-24-13-42-13c-12.5,0-24.7,2.1-36.6,6.2c-12,4.2-22.5,10.6-31.7,19.2
			L2077.6,533.4z M2188.7,624.9c-24.6,0-44.1,3.5-58.5,10.5c-14.4,7-21.6,18.5-21.6,34.5c0,14.7,4.8,25.1,14.5,31.2
			c9.7,6.2,21.7,9.2,36.1,9.2c11.1,0,20.9-1.9,29.2-5.8c8.4-3.8,15.3-8.9,20.9-15.2c5.6-6.3,9.8-13.8,12.8-22.2
			c3-8.5,4.6-17.6,4.9-27.2v-15H2188.7z"/>
		<path class="st2" d="M2492.6,561.9c-8.2-10-17-17.2-26.5-21.8c-9.5-4.5-20-6.8-31.5-6.8c-12.8,0-24.1,2.2-33.9,6.8
			s-18,10.8-24.3,18.8s-11.2,17.2-14.5,27.8c-3.3,10.5-4.9,21.8-4.9,33.8s1.9,23.2,5.6,33.8c3.8,10.5,9,19.8,15.7,27.8
			c6.7,8,14.8,14.2,24.3,18.8c9.5,4.5,20.2,6.8,32,6.8c25.2,0,44.7-9.7,58.5-29l28.5,27.5c-11.1,13-24.3,22.5-39.3,28.5
			c-15.1,6-31,9-47.7,9c-17.7,0-33.9-3-48.7-9s-27.3-14.5-37.6-25.5c-10.3-11-18.4-24-24.1-39c-5.7-15-8.6-31.5-8.6-49.5
			c0-17.7,2.9-34,8.6-49s13.8-28,24.3-39c10.5-11,23-19.6,37.6-25.8c14.6-6.2,30.7-9.2,48.4-9.2c17,0,33.2,3,48.4,9
			s28.6,15.3,40.1,28L2492.6,561.9z"/>
		<path class="st2" d="M2764.4,694.9c-13.8,18-28.9,30.6-45.2,37.8c-16.4,7.2-35.4,10.8-57,10.8c-18,0-34.2-3.2-48.7-9.8
			c-14.4-6.5-26.6-15.2-36.6-26.2s-17.7-24-23.1-39s-8.1-31-8.1-48c0-18,3-34.6,8.9-49.8c5.9-15.2,14.1-28.2,24.6-39
			c10.5-10.8,22.9-19.2,37.4-25.2c14.4-6,30.1-9,47.2-9c16.1,0,30.8,2.8,44.2,8.2c13.4,5.5,25,13.5,34.7,24
			c9.7,10.5,17.1,23.3,22.4,38.5c5.2,15.2,7.9,32.4,7.9,51.8v12.5H2587c0.6,10,3,19.6,7.1,28.8c4.1,9.2,9.4,17.2,16,24
			c6.5,6.8,14.3,12.2,23.1,16.2s18.5,6,29,6c16.7,0,30.8-3,42.3-9c11.5-6,21.8-14.8,31-26.5L2764.4,694.9z M2731.5,599.4
			c-0.7-20-7-36-19.2-48c-12.1-12-28.9-18-50.1-18c-21.3,0-38.5,6-51.6,18c-13.1,12-21,28-23.6,48H2731.5z"/>
		<path class="st2" d="M2825.4,558.9c0-10.7-0.3-20.7-1-30c-0.7-9.3-1-17.8-1-25.5h36.4c0,6.3,0.2,12.7,0.5,19
			c0.3,6.3,0.5,12.8,0.5,19.5h1c2.6-5.7,6.3-11.2,11.1-16.5c4.8-5.3,10.4-10.1,17-14.2c6.5-4.2,13.9-7.5,22.1-10s17-3.8,26.5-3.8
			c2.6,0,5.2,0.2,7.9,0.5c2.6,0.3,5.2,1,7.9,2l-2.5,39.5c-6.6-2-13.4-3-20.6-3c-23.6,0-40.7,7.8-51.4,23.2s-16,36.8-16,63.8v114
			h-38.4L2825.4,558.9L2825.4,558.9z"/>
	</g>
	<path id="texto_1_" class="st2" d="M1618.6,468.6c0,0-5.8-53.9,56.5-51.9h25.3c0,0,1.3,51.9-55.8,51.9H1618.6z"/>
</g>
</svg>
