<?xml version="1.0" encoding="utf-8"?>
<!-- Generator: Adobe Illustrator 16.0.3, SVG Export Plug-In . SVG Version: 6.00 Build 0)  -->
<!DOCTYPE svg PUBLIC "-//W3C//DTD SVG 1.1//EN" "http://www.w3.org/Graphics/SVG/1.1/DTD/svg11.dtd">
<svg version="1.1" id="Capa_1" xmlns="http://www.w3.org/2000/svg" xmlns:xlink="http://www.w3.org/1999/xlink" x="0px" y="0px"
	 width="1920px" height="1080px" viewBox="0 0 1920 1080" enable-background="new 0 0 1920 1080" xml:space="preserve">
<g>
	<defs>
		<rect id="SVGID_1_" width="1920" height="1080"/>
	</defs>
	<clipPath id="SVGID_2_">
		<use xlink:href="#SVGID_1_"  overflow="visible"/>
	</clipPath>
	<path clip-path="url(#SVGID_2_)" fill="#91BF3D" d="M353.853,585.345c-5.664,0-11.412-1.307-16.799-4.063
		c-18.157-9.295-25.341-31.55-16.047-49.707l139.018-271.574c9.294-18.155,31.549-25.341,49.705-16.046
		c18.157,9.295,25.34,31.549,16.046,49.706L386.757,565.234C380.222,578.002,367.274,585.345,353.853,585.345"/>
	<path clip-path="url(#SVGID_2_)" fill="#91BF3D" d="M416.554,708.548c-13.423,0-26.368-7.342-32.905-20.111L181.987,293.661
		c-9.294-18.157-2.11-40.411,16.047-49.704c18.154-9.293,40.409-2.113,49.704,16.044L449.4,654.777
		c9.294,18.157,2.11,40.411-16.047,49.705C427.967,707.239,422.217,708.548,416.554,708.548"/>
	<path clip-path="url(#SVGID_2_)" fill="#91BF3D" d="M548.331,708.548c-5.664,0-11.412-1.307-16.799-4.065
		c-18.157-9.294-25.341-31.548-16.047-49.705l201.822-394.776c9.295-18.155,31.547-25.346,49.704-16.044
		c18.157,9.293,25.341,31.547,16.047,49.704L581.236,688.437C574.7,701.204,561.753,708.548,548.331,708.548"/>
	<path clip-path="url(#SVGID_2_)" fill="#91BF3D" d="M954.108,709.179c-13.423,0-26.368-7.342-32.905-20.111l-201.72-395.407
		c-9.294-18.157-2.111-40.411,16.046-49.704c18.156-9.293,40.41-2.112,49.705,16.044l201.72,395.407
		c9.294,18.156,2.11,40.411-16.047,49.704C965.521,707.869,959.771,709.179,954.108,709.179"/>
	<path clip-path="url(#SVGID_2_)" fill="#F8B034" d="M1333.659,450.545c-5.664,0-11.412-1.307-16.799-4.066l-271.571-139.018
		c-18.157-9.293-25.341-31.547-16.047-49.705c9.294-18.155,31.549-25.347,49.704-16.044l271.571,139.018
		c18.157,9.293,25.341,31.547,16.047,49.704C1360.028,443.203,1347.081,450.545,1333.659,450.545"/>
	<path clip-path="url(#SVGID_2_)" fill="#F8B034" d="M1062.147,589.566c-13.423,0-26.368-7.342-32.905-20.111
		c-9.294-18.157-2.111-40.412,16.047-49.704L1316.86,380.73c18.153-9.293,40.409-2.112,49.704,16.044
		c9.294,18.158,2.11,40.412-16.047,49.705L1078.946,585.5C1073.561,588.257,1067.81,589.566,1062.147,589.566"/>
	<path clip-path="url(#SVGID_2_)" fill="#F8B034" d="M1062.117,709.179L1062.117,709.179c-20.396,0-36.932-16.536-36.932-36.933
		V274.453c0-20.398,16.535-36.933,36.932-36.933s36.933,16.535,36.933,36.933v397.793
		C1099.05,692.643,1082.514,709.179,1062.117,709.179"/>
	<path clip-path="url(#SVGID_2_)" fill="#F8B034" d="M1436.443,598.813c-20.397,0-36.934-12.799-36.934-28.587V372.682
		c0-15.788,16.536-28.587,36.934-28.587c20.396,0,36.933,12.799,36.933,28.587v197.545
		C1473.376,586.015,1456.84,598.813,1436.443,598.813"/>
	<path clip-path="url(#SVGID_2_)" fill="#F8B034" d="M1704.988,709.179c-20.397,0-36.934-12.8-36.934-28.588V372.682
		c0-15.788,16.536-28.587,36.934-28.587c20.396,0,36.933,12.799,36.933,28.587v307.909
		C1741.921,696.379,1725.385,709.179,1704.988,709.179"/>
	<path clip-path="url(#SVGID_2_)" fill="#F8B034" d="M1704.988,709.179h-267.217c-20.393,0-37.938-15.953-38.256-36.344
		c-0.322-20.667,16.335-37.521,36.928-37.521h267.217c20.393,0,37.938,15.952,38.256,36.343
		C1742.238,692.325,1725.582,709.179,1704.988,709.179"/>
	<path clip-path="url(#SVGID_2_)" fill="#F8B034" d="M1473.689,274.609c0,20.483-16.605,37.089-37.09,37.089
		c-20.483,0-37.089-16.606-37.089-37.089c0-20.484,16.605-37.089,37.089-37.089C1457.084,237.521,1473.689,254.125,1473.689,274.609
		"/>
	<path clip-path="url(#SVGID_2_)" fill="#F8B034" d="M1742.077,274.609c0,20.483-16.605,37.089-37.089,37.089
		s-37.089-16.606-37.089-37.089c0-20.484,16.605-37.089,37.089-37.089S1742.077,254.125,1742.077,274.609"/>
	<path clip-path="url(#SVGID_2_)" fill="#8B8B8B" d="M327.814,814.729c0,3.637-0.71,7.274-2.133,10.674
		c-1.423,3.241-3.402,6.167-5.93,8.696c-2.531,2.53-5.456,4.507-8.697,5.93c-3.402,1.424-7.036,2.135-10.755,2.135
		c-3.634,0-7.271-0.711-10.673-2.135c-3.241-1.423-6.166-3.399-8.697-5.93c-2.529-2.529-4.504-5.455-5.93-8.696
		c-1.423-3.399-2.133-7.037-2.133-10.674c0-3.716,0.71-7.354,2.133-10.753c1.426-3.241,3.401-6.166,5.93-8.696
		c2.531-2.529,5.456-4.507,8.697-5.93c3.402-1.424,6.958-2.135,10.595-2.135c8.936-0.237,16.92,3.479,22.85,11.385
		c1.344,1.818,0.474,4.349-1.423,5.455c-1.976,1.107-4.111,0.236-5.534-1.423c-4.508-5.297-9.646-7.511-15.893-7.511
		c-10.752,0.079-19.449,8.776-19.449,19.607c0,10.753,8.776,19.528,19.527,19.528c9.489,0,17.395-6.72,19.213-15.575h-17.156
		c-2.214,0-3.954-1.818-3.954-3.953c0-2.214,1.74-3.953,3.954-3.953h21.506C325.995,810.775,327.814,812.515,327.814,814.729"/>
	<path clip-path="url(#SVGID_2_)" fill="#8B8B8B" d="M391.12,818.286l11.071,18.027c1.106,1.817,0.553,4.269-1.344,5.454
		c-0.635,0.396-1.345,0.554-2.058,0.554c-1.344,0-2.609-0.711-3.398-1.897l-13.126-21.505h-8.063v19.528
		c0,2.214-1.818,3.874-3.954,3.874c-2.214,0-3.952-1.66-3.952-3.874v-47.279c0-2.135,1.816-3.953,4.031-3.953h0.159h16.603
		c7.985,0,15.655,6.799,15.733,15.654C402.822,809.905,398.079,815.757,391.12,818.286 M394.995,802.948
		c-0.079-4.428-3.716-7.827-8.223-7.827h-12.57v15.892h12.57C391.279,811.013,394.916,807.455,394.995,802.948"/>
	<path clip-path="url(#SVGID_2_)" fill="#8B8B8B" d="M440.516,814.412c0-14.863,12.099-27.355,27.357-27.355
		c15.259,0,27.355,12.492,27.355,27.355c0,15.26-12.096,27.831-27.355,27.831C452.614,842.243,440.516,829.672,440.516,814.412
		 M448.186,814.412c0,11.228,8.854,20.161,19.687,20.161c10.83,0,19.766-8.934,19.766-20.161c0-10.831-8.936-19.687-19.766-19.687
		C457.04,794.726,448.186,803.581,448.186,814.412"/>
	<path clip-path="url(#SVGID_2_)" fill="#8B8B8B" d="M599.411,792.038l-18.264,47.675c-0.632,1.581-2.133,2.608-3.716,2.608h-0.079
		c-1.661,0-3.163-1.106-3.715-2.608l-8.619-22.217l-8.776,22.217c-0.631,1.581-2.133,2.608-3.715,2.608h-0.079
		c-1.662,0-3.163-1.106-3.716-2.608l-17.711-47.359c-0.789-2.056,0.238-4.349,2.292-5.06c2.057-0.791,4.272,0.237,5.06,2.293
		l14.154,37.792l8.775-22.217c0.634-1.581,2.136-2.609,3.716-2.53c1.662-0.079,3.163,0.949,3.716,2.53l8.697,22.217l14.627-38.108
		c0.791-2.056,3.006-3.084,5.06-2.293C599.175,787.689,600.203,789.982,599.411,792.038"/>
	<path clip-path="url(#SVGID_2_)" fill="#8B8B8B" d="M638.126,838.447v-47.754c0-2.135,1.74-3.874,3.954-3.874
		c2.136,0,3.873,1.739,3.873,3.874v47.754c0,2.214-1.737,3.953-3.873,3.953C639.867,842.4,638.126,840.661,638.126,838.447"/>
	<path clip-path="url(#SVGID_2_)" fill="#8B8B8B" d="M723.737,841.848c-0.631,0.474-1.423,0.632-2.133,0.632
		c-1.266,0-2.532-0.632-3.32-1.818l-25.856-37.159v35.104c0,2.135-1.737,3.874-3.873,3.874c-2.135,0-3.954-1.739-3.954-3.874
		v-47.517c-0.157-1.502,0.474-3.005,1.819-3.874c1.818-1.187,4.271-0.712,5.455,1.186l25.775,38.267v-36.132
		c0-2.214,1.818-3.953,3.954-3.953c2.133,0,3.873,1.739,3.873,3.953v47.438C725.716,839.476,725.081,840.978,723.737,841.848"/>
	<path clip-path="url(#SVGID_2_)" fill="#8B8B8B" d="M818.674,814.729c0,3.637-0.71,7.274-2.133,10.674
		c-1.423,3.241-3.401,6.167-5.93,8.696c-2.531,2.53-5.456,4.507-8.697,5.93c-3.402,1.424-7.036,2.135-10.755,2.135
		c-3.634,0-7.271-0.711-10.673-2.135c-3.241-1.423-6.165-3.399-8.697-5.93c-2.528-2.529-4.504-5.455-5.929-8.696
		c-1.423-3.399-2.133-7.037-2.133-10.674c0-3.716,0.71-7.354,2.133-10.753c1.425-3.241,3.401-6.166,5.929-8.696
		c2.532-2.529,5.456-4.507,8.697-5.93c3.402-1.424,6.958-2.135,10.595-2.135c8.936-0.237,16.92,3.479,22.85,11.385
		c1.345,1.818,0.474,4.349-1.423,5.455c-1.976,1.107-4.111,0.236-5.534-1.423c-4.507-5.297-9.646-7.511-15.893-7.511
		c-10.752,0.079-19.449,8.776-19.449,19.607c0,10.753,8.776,19.528,19.527,19.528c9.489,0,17.395-6.72,19.214-15.575h-17.156
		c-2.214,0-3.955-1.818-3.955-3.953c0-2.214,1.741-3.953,3.955-3.953h21.505C816.856,810.775,818.674,812.515,818.674,814.729"/>
	<path clip-path="url(#SVGID_2_)" fill="#8B8B8B" d="M915.252,838.447v-47.754c0-2.135,1.74-3.874,3.954-3.874
		c2.136,0,3.873,1.739,3.873,3.874v47.754c0,2.214-1.737,3.953-3.873,3.953C916.992,842.4,915.252,840.661,915.252,838.447"/>
	<path clip-path="url(#SVGID_2_)" fill="#8B8B8B" d="M1000.866,841.848c-0.632,0.474-1.423,0.632-2.133,0.632
		c-1.266,0-2.531-0.632-3.32-1.818l-25.855-37.159v35.104c0,2.135-1.737,3.874-3.873,3.874s-3.954-1.739-3.954-3.874v-47.517
		c-0.157-1.502,0.474-3.005,1.818-3.874c1.818-1.187,4.271-0.712,5.456,1.186l25.774,38.267v-36.132
		c0-2.214,1.818-3.953,3.954-3.953c2.133,0,3.873,1.739,3.873,3.953v47.438C1002.845,839.476,1002.21,840.978,1000.866,841.848"/>
	<path clip-path="url(#SVGID_2_)" fill="#8B8B8B" d="M1080.225,841.848c-0.632,0.474-1.423,0.632-2.134,0.632
		c-1.266,0-2.531-0.632-3.319-1.818l-25.857-37.159v35.104c0,2.135-1.736,3.874-3.873,3.874c-2.134,0-3.953-1.739-3.953-3.874
		v-47.517c-0.157-1.502,0.475-3.005,1.819-3.874c1.818-1.187,4.271-0.712,5.455,1.186l25.774,38.267v-36.132
		c0-2.214,1.818-3.953,3.954-3.953c2.134,0,3.873,1.739,3.873,3.953v47.438C1082.203,839.476,1081.568,840.978,1080.225,841.848"/>
	<path clip-path="url(#SVGID_2_)" fill="#8B8B8B" d="M1120.051,814.412c0-14.863,12.099-27.355,27.356-27.355
		c15.26,0,27.355,12.492,27.355,27.355c0,15.26-12.096,27.831-27.355,27.831C1132.149,842.243,1120.051,829.672,1120.051,814.412
		 M1127.721,814.412c0,11.228,8.854,20.161,19.687,20.161c10.831,0,19.767-8.934,19.767-20.161c0-10.831-8.936-19.687-19.767-19.687
		C1136.574,794.726,1127.721,803.581,1127.721,814.412"/>
	<path clip-path="url(#SVGID_2_)" fill="#8B8B8B" d="M1255.386,792.038l-18.264,47.675c-0.633,1.581-2.136,2.608-3.716,2.608h-0.08
		c-1.66,0-3.161-1.106-3.715-2.608l-17.711-47.359c-0.789-2.056,0.238-4.349,2.293-5.06c2.057-0.791,4.271,0.237,5.06,2.293
		l14.153,37.792l14.627-38.108c0.791-2.056,3.002-3.084,5.061-2.293C1255.147,787.689,1256.178,789.982,1255.386,792.038"/>
	<path clip-path="url(#SVGID_2_)" fill="#8B8B8B" d="M1320.281,842.243c-1.82,0.395-4.271-0.476-5.219-2.847l-2.846-8.064h-19.291
		l-3.323,8.064c-0.393,1.818-1.897,2.847-3.794,2.847h-0.87c-2.372-1.028-3.321-3.321-2.846-5.219l16.92-47.122
		c0.475-1.502,1.897-2.846,3.873-2.846c1.896,0,3.241,1.344,3.716,2.846l16.05,47.122
		C1323.521,838.922,1322.651,841.215,1320.281,842.243 M1309.843,823.347l-6.957-20.24l-7.114,20.24H1309.843z"/>
	<path clip-path="url(#SVGID_2_)" fill="#8B8B8B" d="M1353.786,786.898h31.786c2.133,0,3.873,1.739,3.873,3.953
		c0,2.135-1.74,3.874-3.873,3.874h-12.021v43.722c0,2.214-1.737,3.953-3.873,3.953c-2.214,0-3.954-1.739-3.954-3.953v-43.722
		h-11.938c-2.212,0-3.951-1.739-3.951-3.874C1349.835,788.638,1351.574,786.898,1353.786,786.898"/>
	<path clip-path="url(#SVGID_2_)" fill="#8B8B8B" d="M1427.927,838.447v-47.754c0-2.135,1.74-3.874,3.954-3.874
		c2.136,0,3.873,1.739,3.873,3.874v47.754c0,2.214-1.737,3.953-3.873,3.953C1429.667,842.4,1427.927,840.661,1427.927,838.447"/>
	<path clip-path="url(#SVGID_2_)" fill="#8B8B8B" d="M1474.009,814.412c0-14.863,12.099-27.355,27.356-27.355
		c15.26,0,27.355,12.492,27.355,27.355c0,15.26-12.096,27.831-27.355,27.831C1486.107,842.243,1474.009,829.672,1474.009,814.412
		 M1481.679,814.412c0,11.228,8.854,20.161,19.687,20.161c10.831,0,19.767-8.934,19.767-20.161c0-10.831-8.936-19.687-19.767-19.687
		C1490.532,794.726,1481.679,803.581,1481.679,814.412"/>
	<path clip-path="url(#SVGID_2_)" fill="#8B8B8B" d="M1605.943,841.848c-0.632,0.474-1.423,0.632-2.133,0.632
		c-1.266,0-2.531-0.632-3.32-1.818l-25.855-37.159v35.104c0,2.135-1.737,3.874-3.873,3.874s-3.954-1.739-3.954-3.874v-47.517
		c-0.157-1.502,0.474-3.005,1.818-3.874c1.818-1.187,4.271-0.712,5.455,1.186l25.775,38.267v-36.132
		c0-2.214,1.817-3.953,3.954-3.953c2.133,0,3.873,1.739,3.873,3.953v47.438C1607.922,839.476,1607.287,840.978,1605.943,841.848"/>
	<path clip-path="url(#SVGID_2_)" fill="#8B8B8B" d="M1676.368,826.509c0,8.776-7.114,15.892-15.812,15.892
		s-15.814-7.115-15.814-15.892c0-2.135,1.74-3.953,3.954-3.953c2.215,0,3.952,1.818,3.952,3.953c0,4.428,3.559,7.985,7.908,7.985
		c4.348,0,7.906-3.558,7.906-7.985c0-4.349-3.559-7.906-7.906-7.906c-8.697,0-15.814-7.036-15.814-15.813
		c0-8.697,7.117-15.813,15.814-15.813s15.812,7.115,15.812,15.813c0,2.214-1.74,3.953-3.954,3.953c-2.133,0-3.951-1.739-3.951-3.953
		c0-4.349-3.559-7.906-7.906-7.906c-4.35,0-7.908,3.558-7.908,7.906s3.559,7.906,7.908,7.906
		C1669.254,810.696,1676.368,817.813,1676.368,826.509"/>
	<path clip-path="url(#SVGID_2_)" fill="#91BF3D" d="M986.949,689.04c-6.112,11.951-18.543,20.133-32.889,20.139l-217.281-0.462
		c-20.397,0.006-36.939-16.523-36.945-36.921c-0.006-20.395,16.52-36.938,36.918-36.945l217.281,0.462
		c20.398-0.007,36.94,16.522,36.945,36.92C990.981,678.283,989.528,683.999,986.949,689.04"/>
</g>
</svg>
