<?xml version="1.0" encoding="utf-8"?>
<!-- Generator: Adobe Illustrator 24.0.3, SVG Export Plug-In . SVG Version: 6.00 Build 0)  -->
<svg version="1.1" id="Capa_1" xmlns="http://www.w3.org/2000/svg" xmlns:xlink="http://www.w3.org/1999/xlink" x="0px" y="0px"
	 viewBox="0 0 3072.2 940.6" style="background: transparent;" xml:space="preserve">
<style type="text/css">
	.st0{fill:#FFFFFF;}
	.st1{fill:#FFFFFF;}
	.st2{fill:#92BC37;}
	.st3{display:none;}
	.st4{display:inline;fill:#FFFFFF;}
</style>
<g id="Logo_Azul_1_">
	<path class="st0" d="M649.9,529.2C649.9,529.2,649.9,529.2,649.9,529.2v223.2c0,20.2-16.4,36.6-36.6,36.6H390.1c-0.6,0-1.3,0-1.9,0
		c-142.6-1-257.8-116.9-257.8-259.7c0-143.5,116.3-259.8,259.8-259.8S649.9,385.7,649.9,529.2z M390.1,463.5
		c-36.3,0-65.7,29.4-65.7,65.7s29.4,65.7,65.7,65.7s65.7-29.4,65.7-65.7S426.4,463.5,390.1,463.5z"/>
	<path id="grande_2_" class="st2" d="M382.8,221.4c0,0-13.6-125.5,131.5-120.9h59c0,0,3,120.9-130,120.9H382.8z"/>
</g>
<g id="Texto_Horizontal">
	<g class="st3">
		<rect x="621.8" y="295.6" class="st4" width="2487" height="645"/>
	</g>
	<g>
		<path class="st2" d="M887.4,383.4h63.4l151.4,354h-86.5l-30-75H850.5l-29,75h-84.6L887.4,383.4z M916.9,486.4l-42.3,110h85.1
			L916.9,486.4z"/>
		<path class="st2" d="M1371.6,716.9c0,46-11.4,80.9-34.2,104.8c-22.8,23.8-57.4,35.8-104,35.8c-21.3,0-42.3-2.4-62.9-7.2
			c-20.6-4.8-39.7-14.2-57-28.2l40.8-62c11.5,9.7,23.5,17.3,36.1,23c12.6,5.7,26.5,8.5,41.5,8.5c22.6,0,39.2-5.6,49.9-16.8
			c10.6-11.2,16-25.4,16-42.8v-23.5h-1c-8.5,11.7-19.1,19.9-31.7,24.8c-12.6,4.8-24.5,7.2-35.6,7.2c-17.7,0-33.8-3.1-48.2-9.2
			c-14.4-6.2-26.8-14.8-37.1-26c-10.3-11.2-18.3-24.4-23.9-39.8c-5.6-15.3-8.4-32.2-8.4-50.5c0-16,2.5-31.7,7.6-47
			c5.1-15.3,12.3-28.8,21.6-40.5c9.3-11.7,20.7-21.1,34.2-28.2c13.4-7.2,28.7-10.8,45.7-10.8c10.5,0,20.1,1.2,28.8,3.5
			c8.7,2.3,16.5,5.3,23.4,9c6.9,3.7,12.8,7.8,17.7,12.2s8.9,8.9,11.8,13.2h1v-32h67.9V716.9z M1185.8,614.4c0,8,1.5,15.6,4.4,22.8
			c2.9,7.2,7.1,13.5,12.5,19s11.6,9.9,18.7,13.2c7,3.3,14.8,5,23.4,5c8.2,0,15.9-1.7,23.1-5c7.2-3.3,13.5-7.8,18.9-13.2
			s9.6-11.8,12.5-19c2.9-7.2,4.4-14.8,4.4-22.8s-1.5-15.6-4.4-22.8c-2.9-7.2-7.1-13.5-12.5-19s-11.7-9.9-18.9-13.2
			c-7.2-3.3-14.9-5-23.1-5c-8.5,0-16.3,1.7-23.4,5c-7.1,3.3-13.3,7.8-18.7,13.2s-9.6,11.8-12.5,19
			C1187.3,598.8,1185.8,606.4,1185.8,614.4z"/>
		<path class="st2" d="M1423.7,494.4h73.8v39h1c7.9-15,17.2-26.2,28-33.8s24.4-11.2,40.8-11.2c4.3,0,8.5,0.2,12.8,0.5
			c4.3,0.3,8.2,1,11.8,2v68.5c-5.2-1.7-10.4-2.9-15.5-3.8c-5.1-0.8-10.4-1.2-16-1.2c-14.1,0-25.2,2-33.4,6
			c-8.2,4-14.5,9.6-18.9,16.8c-4.4,7.2-7.3,15.8-8.6,25.8c-1.3,10-2,21-2,33v101.5h-73.8L1423.7,494.4L1423.7,494.4z"/>
		<rect x="1617.9" y="494.4" class="st2" width="73.8" height="243"/>
		<path class="st2" d="M1874.1,536.4h-67.9v117c0,7.7,0.2,14.8,0.5,21.2c0.3,6.5,1.6,12.2,3.9,17c2.3,4.8,5.7,8.7,10.3,11.5
			c4.6,2.8,11.1,4.2,19.7,4.2c5.6,0,11.3-0.7,17.2-2c5.9-1.3,11.5-3.3,16.7-6l1.5,35.5c-6.6,3-13.9,5.2-21.9,6.5
			c-8,1.3-15.7,2-22.9,2c-13.8,0-24.8-1.8-32.9-5.5c-8.2-3.7-14.6-8.8-19.2-15.5c-4.6-6.7-7.6-14.9-9.1-24.8
			c-1.5-9.8-2.2-20.8-2.2-32.8V536.4h-50.1v-33h50.1v-66.5h38.4v66.5h67.9L1874.1,536.4L1874.1,536.4z"/>
		<path class="st2" d="M1914.4,558.9c0-10.7-0.3-20.7-1-30c-0.7-9.3-1-17.8-1-25.5h36.4c0,6.3,0.2,12.7,0.5,19
			c0.3,6.3,0.5,12.8,0.5,19.5h1c2.6-5.7,6.3-11.2,11.1-16.5c4.8-5.3,10.4-10.1,17-14.2c6.6-4.2,13.9-7.5,22.1-10
			c8.2-2.5,17-3.8,26.6-3.8c2.6,0,5.2,0.2,7.9,0.5c2.6,0.3,5.2,1,7.9,2l-2.5,39.5c-6.6-2-13.4-3-20.6-3c-23.6,0-40.7,7.8-51.4,23.2
			s-16,36.8-16,63.8v114h-38.4L1914.4,558.9L1914.4,558.9z"/>
		<path class="st2" d="M2077.6,533.4c11.8-12.3,25.8-21.4,42-27.2c16.2-5.8,32.7-8.8,49.4-8.8c34.1,0,58.7,8.2,73.8,24.5
			c15.1,16.3,22.6,41.2,22.6,74.5v100.5c0,6.7,0.3,13.6,1,20.8c0.6,7.2,1.5,13.8,2.5,19.8H2232c-1.3-5.3-2-11.2-2.2-17.8
			c-0.2-6.5-0.2-12.2-0.2-17.2h-1c-7.5,12-17.6,21.8-30.2,29.5s-27.8,11.5-45.5,11.5c-11.8,0-22.9-1.5-33.2-4.5s-19.3-7.4-27-13.2
			c-7.7-5.8-13.9-13.1-18.4-21.8c-4.6-8.7-6.9-18.7-6.9-30c0-19.3,4.9-34.5,14.8-45.5s22-19.2,36.6-24.5c14.6-5.3,30.3-8.7,47.2-10
			c16.9-1.3,32.4-2,46.5-2h14.8v-7c0-17-5-29.8-15-38.5c-10-8.7-24-13-42-13c-12.5,0-24.7,2.1-36.6,6.2c-12,4.2-22.5,10.6-31.7,19.2
			L2077.6,533.4z M2188.7,624.9c-24.6,0-44.1,3.5-58.5,10.5c-14.4,7-21.6,18.5-21.6,34.5c0,14.7,4.8,25.1,14.5,31.2
			c9.7,6.2,21.7,9.2,36.1,9.2c11.1,0,20.9-1.9,29.2-5.8c8.4-3.8,15.3-8.9,20.9-15.2c5.6-6.3,9.8-13.8,12.8-22.2
			c3-8.5,4.6-17.6,4.9-27.2v-15H2188.7z"/>
		<path class="st2" d="M2492.6,561.9c-8.2-10-17-17.2-26.5-21.8c-9.5-4.5-20-6.8-31.5-6.8c-12.8,0-24.1,2.2-33.9,6.8
			s-18,10.8-24.3,18.8s-11.2,17.2-14.5,27.8c-3.3,10.5-4.9,21.8-4.9,33.8s1.9,23.2,5.6,33.8c3.8,10.5,9,19.8,15.7,27.8
			c6.7,8,14.8,14.2,24.3,18.8c9.5,4.5,20.2,6.8,32,6.8c25.2,0,44.7-9.7,58.5-29l28.5,27.5c-11.1,13-24.3,22.5-39.3,28.5
			c-15.1,6-31,9-47.7,9c-17.7,0-33.9-3-48.7-9s-27.3-14.5-37.6-25.5c-10.3-11-18.4-24-24.1-39c-5.7-15-8.6-31.5-8.6-49.5
			c0-17.7,2.9-34,8.6-49s13.8-28,24.3-39c10.5-11,23-19.6,37.6-25.8c14.6-6.2,30.7-9.2,48.4-9.2c17,0,33.2,3,48.4,9
			s28.6,15.3,40.1,28L2492.6,561.9z"/>
		<path class="st2" d="M2764.4,694.9c-13.8,18-28.9,30.6-45.2,37.8c-16.4,7.2-35.4,10.8-57,10.8c-18,0-34.2-3.2-48.7-9.8
			c-14.4-6.5-26.6-15.2-36.6-26.2s-17.7-24-23.1-39s-8.1-31-8.1-48c0-18,3-34.6,8.9-49.8c5.9-15.2,14.1-28.2,24.6-39
			c10.5-10.8,22.9-19.2,37.4-25.2c14.4-6,30.1-9,47.2-9c16.1,0,30.8,2.8,44.2,8.2c13.4,5.5,25,13.5,34.7,24
			c9.7,10.5,17.1,23.3,22.4,38.5c5.2,15.2,7.9,32.4,7.9,51.8v12.5H2587c0.6,10,3,19.6,7.1,28.8c4.1,9.2,9.4,17.2,16,24
			c6.5,6.8,14.3,12.2,23.1,16.2s18.5,6,29,6c16.7,0,30.8-3,42.3-9c11.5-6,21.8-14.8,31-26.5L2764.4,694.9z M2731.5,599.4
			c-0.7-20-7-36-19.2-48c-12.1-12-28.9-18-50.1-18c-21.3,0-38.5,6-51.6,18c-13.1,12-21,28-23.6,48H2731.5z"/>
		<path class="st2" d="M2825.4,558.9c0-10.7-0.3-20.7-1-30c-0.7-9.3-1-17.8-1-25.5h36.4c0,6.3,0.2,12.7,0.5,19
			c0.3,6.3,0.5,12.8,0.5,19.5h1c2.6-5.7,6.3-11.2,11.1-16.5c4.8-5.3,10.4-10.1,17-14.2c6.5-4.2,13.9-7.5,22.1-10s17-3.8,26.5-3.8
			c2.6,0,5.2,0.2,7.9,0.5c2.6,0.3,5.2,1,7.9,2l-2.5,39.5c-6.6-2-13.4-3-20.6-3c-23.6,0-40.7,7.8-51.4,23.2s-16,36.8-16,63.8v114
			h-38.4L2825.4,558.9L2825.4,558.9z"/>
	</g>
	<path id="texto_1_" class="st2" d="M1618.6,468.6c0,0-5.8-53.9,56.5-51.9h25.3c0,0,1.3,51.9-55.8,51.9H1618.6z"/>
</g>
</svg>
