<?xml version="1.0" encoding="utf-8"?>
<!-- Generator: Adobe Illustrator 16.0.3, SVG Export Plug-In . SVG Version: 6.00 Build 0)  -->
<!DOCTYPE svg PUBLIC "-//W3C//DTD SVG 1.1//EN" "http://www.w3.org/Graphics/SVG/1.1/DTD/svg11.dtd">
<svg version="1.1" id="Capa_1" xmlns="http://www.w3.org/2000/svg" xmlns:xlink="http://www.w3.org/1999/xlink" x="0px" y="0px"
	 width="3310.051px" height="729.073px" viewBox="0 0 3310.051 729.073" enable-background="new 0 0 3310.051 729.073"
	 xml:space="preserve">
<g>
	<path id="circulo_1_" fill="#FFFFFF" d="M445.715,421.965c0,0.01,0,0.01,0,0.018v167.833c0,15.193-12.318,27.511-27.511,27.511
		H250.353c-0.48,0-0.961,0-1.433-0.008C141.697,616.546,55,529.379,55,421.965c0-107.894,87.468-195.361,195.353-195.361
		C358.248,226.604,445.715,314.071,445.715,421.965z M299.773,421.965c0-27.275-22.111-49.387-49.386-49.387
		c-27.276,0-49.388,22.111-49.388,49.387s22.112,49.387,49.388,49.387C277.662,471.352,299.773,449.24,299.773,421.965"/>
	<path id="pricipal" fill="#87B53D" d="M250.176,176.153c0,0-10.233-94.369,98.917-90.958h44.342c0,0,2.273,90.958-97.779,90.958
		H250.176z"/>
	<g>
		<path fill="#87B53D" d="M815.162,619.604l-26.582-69.006H629.072l-26.582,69.006H502.374l158.373-378.972h95.593l158.377,378.972
			H815.162z M708.826,345.837l-48.08,124.438h96.723L708.826,345.837z"/>
		<path fill="#87B53D" d="M1145.506,583.964v-7.915c-21.119,18.098-49.586,27.149-85.405,27.149
			c-41.12,0-73.884-17.925-96.161-39.878c-22.806-22.468-40.725-56.578-40.725-99.269c0-64.038,38.559-107.767,84.848-126.699
			c16.587-6.785,33.935-10.18,52.038-10.18c35.819,0,64.286,9.05,85.405,27.149v-18.666h88.805v255.667
			c0,70.217-41.012,109.905-95.592,126.699c-19.612,6.032-40.727,9.052-63.35,9.052c-67.232,0-116.531-25.821-142.541-68.442
			l75.229-40.727c10.936,12.822,21.211,21.873,30.825,27.149c9.614,5.282,21.593,7.921,35.92,7.921
			C1116.662,652.975,1145.506,626.252,1145.506,583.964z M1079.326,529.104c37.534,0,66.18-28.645,66.18-65.048
			c0-36.722-29.504-64.482-66.18-64.482c-39.008,0-67.878,26.994-67.878,64.482C1011.448,501.805,1040.055,529.104,1079.326,529.104
			z"/>
		<path fill="#87B53D" d="M1477.535,331.699c7.543,0,14.334,0.754,20.364,2.259l-3.96,90.504h-16.404
			c-65.234,0-97.852,35.443-97.852,106.335v88.807h-90.498V335.656h90.498v54.304
			C1399.021,358.654,1429.645,331.699,1477.535,331.699z"/>
		<rect x="1540.896" y="335.656" fill="#87B53D" width="90.503" height="283.948"/>
		<path fill="#87B53D" d="M1883.104,610.552c-21.118,13.577-28.469,16.403-50.342,16.403c-28.283,0-50.72-8.201-67.312-24.602
			c-16.589-16.406-24.884-39.689-24.884-69.859V376.949h-60.526v-36.201h60.526v-88.805h43.55v88.805h98.987v36.201h-98.987v152.719
			c0,17.723,4.717,31.579,14.145,41.574c9.426,9.993,21.867,14.987,37.331,14.987c7.164,0,15.176-1.604,24.038-4.807
			c8.864-3.207,16.688-7.26,23.474-12.161V610.552z"/>
		<path fill="#87B53D" d="M2105.404,340.182l-3.396,41.288l-16.406-0.563c-13.194,0-26.485,2.168-39.875,6.505
			c-13.387,4.338-25.358,11.785-35.916,22.343c-10.561,10.557-19.232,24.319-26.017,41.294
			c-6.794,16.967-10.184,37.329-10.184,61.083v107.473h-43.554V340.748h43.554v68.438c12.063-21.868,27.618-39.215,46.663-52.037
			c19.041-12.821,40.82-19.228,65.328-19.228C2093.525,337.921,2100.121,338.67,2105.404,340.182z"/>
		<path fill="#87B53D" d="M2346.652,361.395c20.932,18.283,31.395,44.021,31.395,77.205v181.004h-41.857V577.18
			c-11.31,15.085-25.924,27.153-43.835,36.199c-17.913,9.052-38.179,13.576-60.808,13.576c-30.162,0-54.583-7.92-73.249-23.757
			c-18.665-15.838-27.997-36.389-27.997-61.652c0-26.02,9.807-47.043,29.414-63.067s47.137-24.04,82.582-24.04h93.893v-13.01
			c0-10.938-2.258-21.774-6.784-32.523c-4.525-10.75-12.447-19.608-23.76-26.586c-11.311-6.974-24.888-10.464-40.726-10.464
			c-21.111,0-38.648,4.995-52.602,14.989c-13.95,9.993-22.438,14.613-25.455,31.961h-41.289
			c4.526-25.264,17.63-45.726,39.311-61.371c21.68-15.649,47.606-23.477,77.774-23.477
			C2297.729,333.958,2325.729,343.103,2346.652,361.395z M2280.194,582.839c15.083-5.655,28.187-15.742,39.311-30.263
			c11.125-14.52,16.685-31.013,16.685-49.49v-14.709h-94.459c-21.867,0-39.029,4.902-51.471,14.709
			c-12.443,9.801-18.666,22.435-18.666,37.893c0,6.791,1.979,14.144,5.938,22.061c3.959,7.921,11.41,14.613,22.342,20.082
			c10.938,5.468,23.571,8.201,37.898,8.201C2250.969,591.322,2265.107,588.496,2280.194,582.839z"/>
		<path fill="#87B53D" d="M2609.679,580.569c11.879-4.146,22.817-10.838,32.806-20.076c9.993-9.239,15.743-15.744,20.648-30.825
			l41.29-0.569c-7.542,27.905-23.566,55.902-48.074,72.683c-24.514,16.785-52.421,25.174-83.718,25.174
			c-19.229,0-37.706-3.487-55.429-10.466c-17.722-6.975-33.373-16.968-46.95-29.979c-13.571-13.009-24.134-28.565-31.673-46.663
			c-7.543-18.102-11.313-37.898-11.313-59.391c0-15.838,2.168-30.924,6.504-45.252c4.342-14.328,11.219-28.372,20.646-42.138
			c9.424-13.765,21.965-25.644,37.616-35.637c15.649-9.989,30.732-16.401,45.251-19.229c14.515-2.828,26.302-4.245,35.353-4.245
			c15.082,0,31.487,2.734,49.208,8.203c17.726,5.468,34.505,15.743,50.341,30.825c15.837,15.083,26.775,39.784,32.806,60.526
			h-42.987c-6.03-20.362-15.743-30.735-32.523-42.424c-16.779-11.691-35.731-17.534-56.844-17.534
			c-17.723,0-34.883,4.432-51.476,13.291c-16.588,8.863-29.408,21.872-38.461,39.028c-9.051,17.159-13.575,35.352-13.575,54.584
			c0,11.692,1.79,23.665,5.373,35.92c3.582,12.253,9.614,23.565,18.104,33.935c8.483,10.372,19.513,19.045,33.087,26.02
			c13.574,6.978,29.226,10.467,46.948,10.467C2585.457,586.798,2597.799,584.72,2609.679,580.569z"/>
		<path fill="#87B53D" d="M3034.193,488.941H2794.93c0.754,11.311,3.209,22.814,7.354,34.501
			c4.15,11.692,10.467,22.343,18.952,31.962c8.485,9.613,19.042,17.627,31.675,24.039c12.629,6.407,26.487,9.615,41.575,9.615
			c21.112,0,39.875-4.809,56.276-14.426c16.405-9.615,26.493-15.738,35.92-36.482h41.288
			c-10.931,28.659-27.998,50.626-51.189,65.896c-23.191,15.274-50.619,22.908-82.295,22.908c-18.104,0-35.731-3.487-52.886-10.462
			c-17.162-6.979-32.431-16.879-45.82-29.695c-13.383-12.822-23.853-28.379-31.395-46.667
			c-7.541-18.286-11.311-37.994-11.311-59.106c0-15.837,2.546-32.242,7.635-49.209c5.094-16.975,14.52-33.561,28.283-49.777
			c13.765-16.214,30.545-28.281,50.34-36.201c19.797-7.916,39.122-11.879,57.98-11.879c18.479,0,35.914,3.302,52.32,9.9
			c16.404,6.598,30.824,16.119,43.272,28.566c12.442,12.441,22.247,27.337,29.409,44.683c7.166,17.349,11.125,36.014,11.879,55.997
			V488.941z M2859.416,379.209c-14.71,4.9-28.092,14.14-40.16,27.718c-12.064,13.571-19.606,30.164-22.628,49.771h194.01
			c-2.257-16.587-7.821-31.673-16.685-45.245c-8.86-13.578-20.27-23.571-34.222-29.982s-28.092-9.614-42.419-9.614
			C2886.752,371.855,2874.122,374.308,2859.416,379.209z"/>
		<path fill="#87B53D" d="M3261.023,340.182l-3.395,41.288l-16.405-0.563c-13.196,0-26.488,2.168-39.878,6.505
			c-13.384,4.338-25.357,11.785-35.914,22.343c-10.561,10.557-19.232,24.319-26.019,41.294
			c-6.791,16.967-10.182,37.329-10.182,61.083v107.473h-43.555V340.748h43.555v68.438c12.067-21.868,27.617-39.215,46.664-52.037
			c19.039-12.821,40.817-19.228,65.328-19.228C3249.145,337.921,3255.743,338.67,3261.023,340.182z"/>
		<path id="texto" fill="#87B53D" d="M1541.129,305.251c0,0-7.541-60.596,72.889-58.406h32.668c0,0,1.68,58.406-72.049,58.406
			H1541.129z"/>
	</g>
</g>
</svg>
